<svg xmlns="http://www.w3.org/2000/svg" width="163" height="70" viewBox="0 0 163 70">
    <g fill="#000" fill-rule="nonzero">
        <path d="M78.013 33.808c.055.03.12.052.195.069.075.016.17.026.28.026h1.465l-4.972-5.926a3.717 3.717 0 0 0-.384-.394 1.237 1.237 0 0 0-.426-.234c.123-.059.237-.134.345-.228.107-.094.221-.205.345-.342l4.763-5.382h-1.439c-.185 0-.338.03-.459.091a1.28 1.28 0 0 0-.371.31l-4.161 4.71c-.117.134-.241.229-.371.284-.13.055-.306.081-.528.081h-.638V21.4h-1.683v12.503h1.683v-5.724h.769c.14 0 .257.007.354.023a.83.83 0 0 1 .447.202c.055.049.113.11.179.179l4.317 4.965c.045.052.094.1.14.15a.713.713 0 0 0 .15.11zM85.393 24.91c-.599 0-1.12.173-1.566.518-.446.345-.817.827-1.12 1.442l-.104-1.377c-.023-.156-.068-.267-.13-.332-.065-.065-.179-.098-.348-.098h-.89v8.84h1.554v-5.626c.244-.6.547-1.055.911-1.371.365-.313.818-.472 1.358-.472.303 0 .537.03.707.081.169.056.293.085.374.085.14 0 .231-.072.27-.218l.202-1.16a2.366 2.366 0 0 0-.55-.23 2.534 2.534 0 0 0-.668-.082zM95.923 32.49c-.15.133-.342.24-.567.319a2.444 2.444 0 0 1-.794.117c-.355 0-.651-.039-.886-.124a3.386 3.386 0 0 1-.602-.27 6.658 6.658 0 0 1-.423-.27.593.593 0 0 0-.332-.124.459.459 0 0 0-.254.062.509.509 0 0 0-.166.176l-.368.592c.348.313.775.573 1.273.772.501.202 1.058.3 1.676.3.54 0 1.02-.072 1.43-.219a3.135 3.135 0 0 0 1.048-.599c.287-.254.502-.553.645-.898.146-.345.218-.723.218-1.13 0-.355-.065-.658-.195-.912a1.992 1.992 0 0 0-.518-.641 3.03 3.03 0 0 0-.733-.436 11.28 11.28 0 0 0-.843-.32c-.286-.094-.57-.185-.843-.27a4.516 4.516 0 0 1-.733-.293 1.673 1.673 0 0 1-.517-.394.838.838 0 0 1-.196-.566c0-.18.04-.349.117-.502.079-.153.193-.29.342-.407.15-.117.326-.208.538-.273.208-.068.446-.1.706-.1.303 0 .563.032.785.1.221.068.41.14.57.218.159.078.296.15.406.215a.59.59 0 0 0 .297.094.343.343 0 0 0 .322-.192l.348-.566a3.714 3.714 0 0 0-1.198-.756 4.236 4.236 0 0 0-1.566-.273c-.501 0-.944.068-1.335.208-.39.14-.72.326-.986.564a2.38 2.38 0 0 0-.612.82c-.14.313-.209.635-.209.974 0 .377.065.7.196.963.13.264.303.489.517.668.215.179.463.329.736.449.277.12.56.225.847.32.286.094.57.181.846.266.277.085.521.182.736.296.215.114.387.251.518.41.13.16.195.362.195.606 0 .199-.036.384-.11.557a1.133 1.133 0 0 1-.326.469zM103.698 33.831c.377-.143.7-.338.967-.59l-.453-.741c-.065-.098-.137-.15-.218-.15a.31.31 0 0 0-.163.065 5.518 5.518 0 0 1-.221.143c-.088.052-.192.101-.31.143a1.27 1.27 0 0 1-.423.066.942.942 0 0 1-.697-.27c-.179-.18-.27-.457-.27-.831v-5.3h2.53v-1.127h-2.533v-3.044h-.785c-.097 0-.179.03-.244.085a.333.333 0 0 0-.114.214l-.358 2.732-1.449.182v.619c0 .117.033.202.095.257a.349.349 0 0 0 .234.082h1.065v5.41c0 .733.189 1.297.563 1.684.374.39.912.586 1.608.586a3.43 3.43 0 0 0 1.176-.215zM116.851 28.25c0-.494-.068-.947-.202-1.36a2.879 2.879 0 0 0-.592-1.055 2.723 2.723 0 0 0-.967-.68 3.353 3.353 0 0 0-1.319-.245c-.687 0-1.312.117-1.875.349a5.066 5.066 0 0 0-1.58 1.054l.28.499a.63.63 0 0 0 .19.205.46.46 0 0 0 .273.081.72.72 0 0 0 .407-.143c.137-.098.3-.205.488-.322.19-.12.414-.228.671-.323.257-.094.576-.143.954-.143.576 0 1.01.176 1.306.53.293.356.44.876.44 1.567v.693c-1 0-1.847.082-2.54.241-.694.16-1.254.368-1.68.619-.427.25-.736.537-.928.863a1.95 1.95 0 0 0-.287 1.012c0 .404.065.752.196 1.045.13.296.306.537.527.733.221.195.482.338.781.433.3.094.622.143.964.143.339 0 .645-.03.922-.088a3.606 3.606 0 0 0 1.478-.677c.221-.166.449-.355.68-.563l.176.82c.03.15.091.25.182.296a.843.843 0 0 0 .368.069h.69V28.25h-.003zm-1.527 3.517a5.413 5.413 0 0 1-.537.498c-.182.147-.374.27-.576.371a3.013 3.013 0 0 1-1.39.32c-.206 0-.394-.027-.567-.076a1.148 1.148 0 0 1-.759-.654 1.489 1.489 0 0 1-.114-.606c0-.244.072-.468.215-.667.144-.199.371-.371.684-.518.313-.146.723-.263 1.22-.355.502-.09 1.108-.136 1.824-.136v1.823zM126.6 33.903v-5.626c0-.502-.066-.957-.193-1.371a3.01 3.01 0 0 0-.563-1.061 2.489 2.489 0 0 0-.925-.68 3.192 3.192 0 0 0-1.28-.242c-.621 0-1.172.13-1.644.394-.475.26-.902.606-1.286 1.029l-.123-.96c-.059-.215-.199-.323-.42-.323h-.925v8.84h1.553v-6.509a4.295 4.295 0 0 1 1.104-.898 2.602 2.602 0 0 1 1.286-.332c.628 0 1.094.185 1.4.553.306.368.459.889.459 1.556V33.9h1.556v.003zM133.817 29.647a3.03 3.03 0 0 0-.732-.436 11.28 11.28 0 0 0-.844-.319c-.286-.094-.57-.185-.843-.27a4.516 4.516 0 0 1-.732-.293 1.673 1.673 0 0 1-.518-.394.838.838 0 0 1-.195-.567c0-.179.039-.348.117-.501.078-.153.192-.29.342-.407.15-.117.325-.208.537-.273.208-.069.446-.101.706-.101.303 0 .564.032.785.1.221.069.41.14.57.219.16.078.296.15.407.215a.59.59 0 0 0 .296.094.343.343 0 0 0 .322-.192l.349-.567a3.714 3.714 0 0 0-1.198-.755 4.236 4.236 0 0 0-1.566-.273c-.502 0-.945.068-1.335.208-.391.14-.72.325-.987.563a2.38 2.38 0 0 0-.612.82c-.14.313-.208.635-.208.974 0 .378.065.7.195.964s.303.488.518.667c.215.18.462.33.736.45.276.12.56.224.846.319.287.094.57.182.847.267.276.084.52.182.735.296.215.114.388.25.518.41.13.16.195.362.195.606 0 .198-.035.384-.11.556a1.25 1.25 0 0 1-.336.463c-.15.133-.342.24-.566.319a2.444 2.444 0 0 1-.795.117c-.354 0-.65-.039-.885-.124a3.386 3.386 0 0 1-.603-.27 6.658 6.658 0 0 1-.423-.27.593.593 0 0 0-.332-.124.459.459 0 0 0-.254.062.509.509 0 0 0-.166.176l-.368.592c.349.313.775.573 1.273.772.502.202 1.058.3 1.677.3.54 0 1.02-.072 1.43-.219a3.135 3.135 0 0 0 1.048-.599c.286-.254.501-.553.644-.898.147-.345.218-.723.218-1.13 0-.355-.065-.658-.195-.912a1.814 1.814 0 0 0-.508-.635zM136.829 33.467c.221.192.482.338.781.433.3.094.622.143.964.143.339 0 .645-.03.921-.088a3.606 3.606 0 0 0 1.478-.677c.222-.166.45-.355.681-.564l.176.82c.03.15.09.252.182.297a.843.843 0 0 0 .368.069h.69v-5.65c0-.494-.068-.947-.202-1.36a2.879 2.879 0 0 0-.592-1.055 2.723 2.723 0 0 0-.967-.68 3.353 3.353 0 0 0-1.319-.245c-.687 0-1.312.117-1.875.349a5.066 5.066 0 0 0-1.58 1.054l.28.499a.63.63 0 0 0 .19.205.46.46 0 0 0 .273.081.72.72 0 0 0 .407-.143c.137-.098.3-.205.488-.322.19-.12.414-.228.671-.323.257-.094.576-.143.954-.143.576 0 1.01.176 1.306.53.293.356.44.876.44 1.567v.693c-1 0-1.847.082-2.54.241-.694.16-1.254.368-1.68.619-.427.25-.736.537-.928.863a1.95 1.95 0 0 0-.287 1.012c0 .404.065.752.196 1.045.127.293.302.537.524.73zm.983-2.514c.143-.199.371-.371.684-.518.312-.146.723-.263 1.22-.355.502-.09 1.108-.136 1.824-.136v1.823a5.413 5.413 0 0 1-.537.498c-.183.147-.375.27-.576.371a3.013 3.013 0 0 1-1.39.32c-.206 0-.395-.027-.567-.076a1.148 1.148 0 0 1-.759-.654 1.489 1.489 0 0 1-.114-.606c0-.247.072-.468.215-.667zM152.06 25.848a2.489 2.489 0 0 0-.925-.68 3.192 3.192 0 0 0-1.28-.241c-.622 0-1.172.13-1.644.393-.475.26-.902.606-1.286 1.03l-.124-.961c-.058-.215-.198-.322-.42-.322h-.924v8.839h1.553v-6.512a4.295 4.295 0 0 1 1.103-.898 2.602 2.602 0 0 1 1.287-.332c.628 0 1.093.185 1.4.553.306.368.459.889.459 1.556V33.9h1.553v-5.623c0-.502-.065-.957-.192-1.371a2.962 2.962 0 0 0-.56-1.058zM160.945 21.052v4.903a3.3 3.3 0 0 0-1.03-.771c-.383-.183-.846-.274-1.386-.274-.6 0-1.133.117-1.605.355s-.873.56-1.198.974c-.33.413-.58.898-.756 1.461a6.058 6.058 0 0 0-.26 1.82c0 .733.078 1.38.234 1.947.156.564.381 1.036.67 1.413.29.378.642.665 1.056.86.413.195.872.293 1.377.293.628 0 1.185-.137 1.67-.413a4.67 4.67 0 0 0 1.296-1.104l.14 1.074c.059.215.199.323.42.323h.925v-12.86h-1.553zm0 10.383c-.32.423-.671.752-1.052.986-.38.232-.824.349-1.332.349-.361 0-.68-.062-.96-.183a1.728 1.728 0 0 1-.707-.58c-.192-.263-.338-.601-.436-1.012a6.44 6.44 0 0 1-.15-1.478c0-1.087.222-1.924.665-2.513.442-.586 1.077-.883 1.901-.883.413 0 .791.079 1.13.232.342.153.654.423.937.807v4.275h.004zM88.22 25.138h1.513V33.9H88.22zM88.555 23.393a1.06 1.06 0 0 0 1.175-.234c.101-.101.18-.215.238-.342a1 1 0 0 0 0-.837 1.14 1.14 0 0 0-.583-.583 1.06 1.06 0 0 0-1.172.235 1.091 1.091 0 0 0-.234 1.185c.055.127.133.24.234.342.098.1.212.179.342.234zM106.478 25.138h1.514V33.9h-1.514zM106.472 23.159c.1.1.215.179.341.234a1.06 1.06 0 0 0 1.175-.234c.102-.101.18-.215.239-.342a1 1 0 0 0 0-.837 1.14 1.14 0 0 0-.583-.583 1.06 1.06 0 0 0-1.172.235 1.091 1.091 0 0 0-.234 1.185c.055.127.133.24.234.342zM73.816 44.732a1.679 1.679 0 0 0-.283-.241 1.37 1.37 0 0 0 .267-.202c.078-.075.16-.163.24-.26l3.256-3.465h-1.413c-.146 0-.26.03-.348.088a1.375 1.375 0 0 0-.26.228l-2.794 2.992a.816.816 0 0 1-.254.195.73.73 0 0 1-.287.05h-.4v-7.564h-1.563v12.85h1.563v-4.222h.436c.176 0 .306.02.394.055.088.04.176.117.26.241l2.905 3.62a.841.841 0 0 0 .257.232.682.682 0 0 0 .329.075h1.397l-3.455-4.363a3.117 3.117 0 0 0-.247-.31zM85.08 41.665a3.704 3.704 0 0 0-1.324-.915 4.546 4.546 0 0 0-1.749-.323c-.644 0-1.227.108-1.748.323-.52.215-.964.52-1.332.915a4.064 4.064 0 0 0-.846 1.435c-.199.56-.296 1.189-.296 1.88 0 .696.097 1.324.296 1.884.199.557.479 1.036.846 1.43.368.397.811.7 1.332.911.521.212 1.104.32 1.748.32.645 0 1.228-.108 1.749-.32.52-.212.964-.518 1.325-.912.365-.397.641-.872.837-1.429.195-.56.293-1.185.293-1.885 0-.693-.098-1.319-.293-1.879a4.123 4.123 0 0 0-.837-1.435zm-1.122 5.772c-.43.586-1.081.876-1.954.876-.443 0-.827-.075-1.152-.228-.326-.15-.6-.368-.818-.651a2.861 2.861 0 0 1-.488-1.042 5.593 5.593 0 0 1-.163-1.403c0-.524.056-.993.163-1.41a2.91 2.91 0 0 1 .488-1.052c.219-.283.492-.504.818-.654.325-.15.71-.228 1.152-.228.873 0 1.524.293 1.954.882.43.586.644 1.407.644 2.462.004 1.048-.211 1.865-.644 2.448zM99.201 41.3a2.461 2.461 0 0 0-.924-.651 3.246 3.246 0 0 0-1.244-.222c-.29 0-.576.036-.86.105a2.832 2.832 0 0 0-1.475.908 2.735 2.735 0 0 0-.485.83c-.162-.563-.43-1.012-.797-1.344-.371-.333-.853-.499-1.452-.499-.534 0-1.006.127-1.41.385a4.585 4.585 0 0 0-1.094.986l-.114-.908c-.059-.215-.199-.323-.42-.323h-.925v8.84h1.553V42.82c.274-.354.573-.634.902-.843a1.98 1.98 0 0 1 1.068-.31c.547 0 .964.177 1.247.525.287.348.427.88.427 1.589v5.626h1.553v-5.626c0-.348.052-.654.153-.921.1-.264.24-.486.413-.658.176-.176.378-.306.606-.397.231-.092.472-.137.73-.137.575 0 1.015.179 1.318.537.302.358.452.882.452 1.576v5.626h1.553v-5.626a4.67 4.67 0 0 0-.202-1.426 2.746 2.746 0 0 0-.573-1.055zM113.563 41.3a2.461 2.461 0 0 0-.925-.651 3.246 3.246 0 0 0-1.244-.222c-.29 0-.576.036-.86.105-.282.068-.546.179-.797.332a2.76 2.76 0 0 0-1.162 1.406c-.163-.563-.43-1.012-.798-1.344-.371-.333-.853-.499-1.452-.499-.534 0-1.006.127-1.41.385a4.585 4.585 0 0 0-1.094.986l-.114-.908c-.058-.215-.198-.323-.42-.323h-.924v8.84h1.553V42.82c.273-.354.573-.634.902-.843a1.98 1.98 0 0 1 1.068-.31c.547 0 .963.177 1.247.525.286.348.426.88.426 1.589v5.626h1.553v-5.626c0-.348.052-.654.153-.921.101-.264.241-.486.414-.658.175-.176.377-.306.605-.397.231-.092.472-.137.73-.137.576 0 1.015.179 1.318.537.303.358.453.882.453 1.576v5.626h1.553v-5.626a4.67 4.67 0 0 0-.202-1.426 2.746 2.746 0 0 0-.573-1.055zM122.39 47.086a4.004 4.004 0 0 1-1.108.898c-.4.215-.83.323-1.282.323-.622 0-1.088-.183-1.397-.55-.31-.369-.463-.886-.463-1.554v-5.636h-1.553v5.636c0 .502.062.957.19 1.371.123.413.312.765.563 1.055.25.29.56.518.927.677.368.16.795.241 1.28.241.615 0 1.162-.13 1.64-.387.476-.258.91-.6 1.293-1.026l.124.95c.059.216.199.323.42.323h.925v-8.84h-1.553v6.519h-.007zM133.033 41.349a2.489 2.489 0 0 0-.925-.68 3.192 3.192 0 0 0-1.28-.242c-.621 0-1.172.13-1.644.394-.475.26-.902.606-1.286 1.03l-.124-.961c-.058-.215-.198-.323-.42-.323h-.924v8.84h1.553v-6.508a4.295 4.295 0 0 1 1.104-.899 2.602 2.602 0 0 1 1.286-.332c.628 0 1.094.185 1.4.553.306.368.459.89.459 1.557v5.626h1.553v-5.626c0-.502-.065-.958-.192-1.371a2.912 2.912 0 0 0-.56-1.058zM142.24 41.46a3.312 3.312 0 0 0-1.16-.769c-.448-.176-.764-.267-1.295-.267-.641 0-1.387.11-1.898.336a3.75 3.75 0 0 0-1.3.924 4.088 4.088 0 0 0-.816 1.39 5.15 5.15 0 0 0-.284 1.73c0 .761.105 1.435.313 2.024.208.586.501 1.081.876 1.479.374.397.82.7 1.335.908.514.205 1.077.31 1.69.31.319 0 .64-.03.966-.082.326-.056.642-.137.948-.248.306-.11.592-.25.86-.423.266-.172.498-.374.69-.605l-.437-.567a.345.345 0 0 0-.296-.15c-.098 0-.218.046-.355.137a5.065 5.065 0 0 1-1.24.586 3.305 3.305 0 0 1-1.01.137c-.42 0-.797-.069-1.133-.205a2.29 2.29 0 0 1-.872-.619 2.995 2.995 0 0 1-.576-1.035c-.14-.414-.215-.899-.228-1.459h5.88c.146 0 .244-.042.296-.124.052-.081.078-.244.078-.488 0-.628-.091-1.188-.273-1.68a3.448 3.448 0 0 0-.759-1.24zm-5.167 2.562c.104-.769.371-1.368.804-1.8.43-.434 1.023-.652 1.771-.652.355 0 .671.059.948.18.277.12.511.286.703.504.192.218.339.479.436.778.098.3.15.628.15.99h-4.812zM54.467 56.469c2.002-4.65 3.018-10.129 3.018-16.289v-6.687c0-11.51-3.093-20.304-9.198-26.135-4.24-4.053-9.146-5.834-12.519-6.616-3.516-.814-6.091-.745-6.378-.735h-1.299c-.286-.01-2.862-.082-6.378.735-3.37.782-8.276 2.566-12.519 6.616C3.093 13.19 0 21.983 0 33.493v6.687c0 6.16 1.016 11.64 3.018 16.289 1.745 4.05 4.236 7.485 7.41 10.21a27.118 27.118 0 0 0 4.292 3.018c.1-1.537 1.432-3.816 3.874-3.816 2.69 0 3.64 2.553 3.764 3.194.696-2.152 2.774-5.06 6.375-5.06 3.62 0 5.694 2.912 6.39 5.064.128-.68 1.062-3.149 3.764-3.194 2.416-.04 3.836 2.38 3.875 3.815 1.364-.768 3.35-2.21 4.291-3.018 3.174-2.731 5.668-6.166 7.414-10.213zM27.974 62.57c-2.546.209-4.688 1.68-5.642 3.767-.847-1.146-2.276-1.8-3.888-1.8-1.947 0-3.62 1.094-4.333 2.65a25.21 25.21 0 0 1-3.976-3.272c-1.14-1.335-1.159-3.008-.058-4.975.364-.648.797-1.227 1.182-1.69.14 1.583.634 2.826 1.478 3.705 1.025 1.072 2.569 1.612 4.58 1.612h.06l1.26-.007-.753-1.012c-.95-1.28-1.302-2.976-.986-4.783.237-1.364.85-2.68 1.63-3.585.268 1.648.935 2.937 1.987 3.842 1.888 1.618 4.304 1.365 4.405 1.351l1.026-.117-.564-.866c-.81-1.243-1.302-3.623-.612-5.577.511-1.455 1.586-2.517 3.197-3.161V62.57h.007zm0-15.273c-2.198.749-3.718 2.162-4.399 4.1-.674 1.91-.426 4.102.225 5.684-.7-.088-1.654-.339-2.455-1.032-1.029-.889-1.585-2.302-1.66-4.2l-.046-1.13s-3.246 1.856-3.992 5.831c-.315 1.68-.094 3.305.564 4.679-1.11-.143-1.95-.524-2.553-1.153-.86-.898-1.247-2.367-1.152-4.366l.071-1.517s-2.324 1.706-3.617 4.054c-.612 1.11-.934 2.204-.973 3.193A26.613 26.613 0 0 1 5.83 58.1c1.38-9.54 7.71-11.584 12.799-13.225 2.031-.655 3.786-1.221 4.897-2.201 2.712-2.387 2.578-5.229 1.305-6.86-1.058-1.358-2.705-1.683-4.001-.794-.176.12-2.634 1.891-3.318 2.396l-.703-.88a5.24 5.24 0 0 0 1.38-.569c.96-.55 1.657-1.43 1.911-2.416.212-.827.098-1.664-.322-2.36-.947-1.566-3.2-1.996-5.02-.951a3.886 3.886 0 0 0-1.479 1.52l-2.26-3.37c-.256-.471.138-.83.56-1.087.792-.482 2.133-1.038 3.813-1.481l5.672-.023-1.914 1.228v-.678h-1.075v2.732l5.125-3.292-.007-1.26-6.97.03c-.056-.466.049-1.094.358-1.57.25-.39.592-.615 1.016-.677l8.08.01v-1.273h-6.81v-4.965l2.327 2.438 3.793-4.782 2.986 3.38v30.177zM14.573 34.91l.202-.088c.83-.358 3.194-1.765 4.135-2.331.127.837-.32 1.774-1.185 2.33-1.205.773-2.712.564-3.504.242.127-.052.248-.108.352-.153zm-.84-.954c.182-.814.723-2.022 1.657-2.595.964-.593 2.21-.544 2.934.072-.892.537-3.266 1.947-4.034 2.282.003-.003-.443.192-.557.24zm14.983-21.628c-.449-.453-1.003-1.072-1.21-1.547-.401-.912-.681-2.439 1.25-5.333 1.422 1.774 1.748 3.467.992 5.15-.254.564-.703 1.25-1.032 1.73zm17.152 52.972c-.817.7-1.644 1.321-2.475 1.875v.006c-.01.007-.019.01-.019.01-.713-1.556-2.387-2.65-4.334-2.65-1.614 0-3.04.654-3.887 1.8-.954-2.083-3.093-3.555-5.636-3.767V56.7l1.602-1.198 2.26.612c.244.313.758.944 1.227 1.338.781.664 1.615.905 2.413.905.957 0 1.868-.351 2.594-.749l.665-.361-.463-.596c-1.533-1.98-2.946-2.793-4.444-2.562-.596.091-1.341.518-1.729.762l-1.21-.326 3.587-2.683 2.881 1.006c.254.306 1.01 1.179 1.667 1.693.902.7 1.833.967 2.729.967 1.237 0 2.403-.508 3.314-1.074l.635-.394-.482-.57c-1.98-2.344-3.728-3.265-5.509-2.9-.703.143-1.569.703-2.025 1.025l-1.96-.684 1.993-1.491c.537-.049 2.116-.221 3.217-.576 2.8-.902 4.408-3.243 4.786-6.958l.081-.785-.785.079c-4.128.41-6.544 1.67-7.602 3.962-.456.99-.553 2.614-.573 3.324l-4.343 3.246.609-2.507c.397-.329 1.237-1.045 1.748-1.686 1.465-1.83 1.465-4.028.003-6.535l-.38-.651-.583.479c-2.55 2.087-3.575 3.959-3.22 5.886.153.834.83 1.895 1.142 2.35l-.94 3.879-2.895 2.165V39.018l4.659-3.438 2.077.739c.27.315 1.127 1.289 1.872 1.849.97.732 1.964 1.01 2.918 1.01 1.38 0 2.68-.584 3.685-1.228l.632-.404-.492-.563c-2.204-2.536-4.135-3.52-6.072-3.093-.778.17-1.735.814-2.227 1.172l-1.143-.404 4.373-3.217 2.263.795c.348.407 1.08 1.23 1.728 1.732.98.762 1.996 1.048 2.97 1.048 1.357 0 2.637-.56 3.637-1.178l.634-.394-.485-.57c-2.168-2.566-4.086-3.572-6.03-3.171-.833.172-1.881.879-2.337 1.211l-1.127-.394 1.586-1.162c.576-.056 2.178-.231 3.301-.593 2.885-.928 4.545-3.337 4.933-7.163l.081-.784-.784.078c-4.262.423-6.753 1.719-7.844 4.076-.478 1.032-.576 2.735-.592 3.451l-3.145 2.312.416-2.341c.245-.231 1-.964 1.433-1.595 1.384-2.032.56-4.119-.374-5.51l-.427-.634-.553.527c-1.986 1.895-2.716 3.53-2.309 5.145.156.618.664 1.354.977 1.767l-.664 3.748-4.077 2.998.41-1.865c.41-.365 1.088-1.003 1.518-1.573 1.377-1.83 1.325-3.995-.15-6.433l-.394-.655-.576.502c-2.422 2.103-3.37 3.965-2.982 5.86.185.902.993 2.058 1.243 2.403l-.638 2.917-1.934 1.423V23.18l2.533-2.56c.437-.042 1.547-.166 2.331-.417 2.113-.674 3.325-2.409 3.608-5.163l.081-.785-.784.078c-3.074.303-4.878 1.24-5.679 2.953-.328.707-.41 1.827-.433 2.383l-1.657 1.677v-7.944c.342-.472 1.029-1.462 1.397-2.286 1.055-2.36.466-4.763-1.745-7.14l-.524-.566-.456.625c-2.146 2.937-2.732 5.242-1.85 7.257.333.759 1.137 1.612 1.638 2.097v1.807l-3.04-3.442-3.83 4.829-3.513-3.68v8.144c-.86.071-1.592.507-2.074 1.26a3.757 3.757 0 0 0-.553 2.314c-.485.134-1.24.359-2.032.655-1.91.713-2.988 1.449-3.298 2.253-.172.446-.11.918.166 1.322l3.523 5.27c-1.126.418-2.23.545-3.064-.527l-.954.743c.765.98 1.697 1.29 2.589 1.29.768 0 1.507-.232 2.08-.46l3.246 4.063s4.057-2.96 4.344-3.158c.836-.58 1.748-.153 2.275.524 1.306 1.677.323 3.83-1.142 5.122-.912.8-2.553 1.331-4.448 1.943C13.414 45.22 6.89 47.327 4.9 56.195c-.068-.15-.137-.296-.202-.449C2.793 51.328 1.83 46.089 1.83 40.18v-6.687c0-10.982 2.9-19.327 8.615-24.8 6.834-6.554 15.683-6.87 17.32-6.87.167 0 .258.004.268.004h1.419c.098-.004 10.028-.368 17.578 6.85 5.727 5.476 8.635 13.824 8.635 24.819v6.687c0 5.91-.964 11.148-2.869 15.566-1.634 3.79-3.965 7.004-6.928 9.55zM34.71 55.713c.303-.169.632-.319.853-.351.55-.085 1.407-.007 2.712 1.455-1.123.433-2.057.316-2.842-.348a6.963 6.963 0 0 1-.723-.756zm.935-13.387c.81 1.719.722 3.161-.26 4.388-.326.407-.838.876-1.225 1.212-.283-.456-.609-1.052-.684-1.459-.15-.824-.068-2.13 2.169-4.141zm4.613 10.122c.423-.277.918-.55 1.25-.619.733-.15 1.895-.097 3.745 1.882-1.505.74-2.784.674-3.894-.189-.368-.286-.792-.729-1.1-1.074zm-.573-4.373c.046-.758.166-1.807.436-2.393.502-1.087 1.645-2.559 5.75-3.122-.45 2.722-1.693 4.382-3.793 5.06-.723.227-1.722.377-2.393.455zM32.11 30.413c-.166-.808-.117-2.084 1.97-4.09.814 1.664.758 3.077-.157 4.298-.3.397-.768.856-1.133 1.192-.3-.47-.605-1.03-.68-1.4zm5.515 5.492c.485-.329 1.075-.67 1.465-.758.834-.183 2.162-.14 4.295 2.1-1.716.895-3.184.859-4.47-.114-.434-.32-.938-.84-1.29-1.228zm1.79-13.215c.662 1.273.652 2.383-.028 3.38-.212.309-.534.663-.811.947-.241-.349-.469-.743-.54-1.013-.157-.631-.167-1.64 1.38-3.314zm3.908 9.009c.456-.303 1.058-.652 1.471-.74.834-.172 2.162-.113 4.269 2.156-1.729.872-3.194.817-4.47-.173-.424-.325-.922-.85-1.27-1.243zm-.264-3.686c.046-.791.17-1.888.456-2.504.52-1.13 1.713-2.66 5.99-3.24-.458 2.837-1.754 4.562-3.942 5.265-.755.241-1.81.394-2.504.479zM32.49 19.274c.042-.527.133-1.113.286-1.442.339-.723 1.104-1.696 3.81-2.113-.346 1.745-1.202 2.813-2.595 3.256-.443.14-1.039.238-1.501.3z"/>
    </g>
</svg>
